<svg height="512" viewBox="0 0 64 64" width="512" xmlns="http://www.w3.org/2000/svg" xmlns:xlink="http://www.w3.org/1999/xlink"><linearGradient id="New_Gradient_Swatch_1" gradientUnits="userSpaceOnUse" x1="20" x2="20" y1="-4.05" y2="67.782"><stop offset="0" stop-color="#fff33b"/><stop offset=".014" stop-color="#fee72e"/><stop offset=".042" stop-color="#fed51b"/><stop offset=".07" stop-color="#fdca10"/><stop offset=".1" stop-color="#fdc70c"/><stop offset=".4" stop-color="#f3903f"/><stop offset=".8" stop-color="#ed683c"/><stop offset="1" stop-color="#e93e3a"/></linearGradient><linearGradient id="New_Gradient_Swatch_1-2" x1="14.001" x2="14.001" xlink:href="#New_Gradient_Swatch_1" y1="-4.05" y2="67.782"/><linearGradient id="New_Gradient_Swatch_1-3" x1="8" x2="8" xlink:href="#New_Gradient_Swatch_1" y1="-4.05" y2="67.782"/><linearGradient id="New_Gradient_Swatch_1-4" x1="32" x2="32" xlink:href="#New_Gradient_Swatch_1" y1="-4.05" y2="67.782"/><linearGradient id="New_Gradient_Swatch_1-5" x1="28" x2="28" xlink:href="#New_Gradient_Swatch_1" y1="-4.05" y2="67.782"/><linearGradient id="New_Gradient_Swatch_1-6" x1="24" x2="24" xlink:href="#New_Gradient_Swatch_1" y1="-4.05" y2="67.782"/><linearGradient id="New_Gradient_Swatch_1-8" x1="16" x2="16" xlink:href="#New_Gradient_Swatch_1" y1="-4.05" y2="67.782"/><linearGradient id="New_Gradient_Swatch_1-9" x1="12" x2="12" xlink:href="#New_Gradient_Swatch_1" y1="-4.05" y2="67.782"/><linearGradient id="New_Gradient_Swatch_1-10" x1="39.829" x2="39.829" xlink:href="#New_Gradient_Swatch_1" y1="-4.05" y2="67.782"/><g id="Drug-Medicine-Medical-Health_care-Capsula-Bottle" data-name="Drug-Medicine-Medical-Health care-Capsula-Bottle"><path d="m35 12a3.009 3.009 0 0 0 3-3v-4a3.009 3.009 0 0 0 -3-3h-30a3.009 3.009 0 0 0 -3 3v4a3.009 3.009 0 0 0 3 3h2v2h-1a4 4 0 0 0 -4 4v40a4 4 0 0 0 4 4h9a1 1 0 0 0 0-2h-9a2.006 2.006 0 0 1 -2-2v-5h8a1 1 0 0 0 0-2h-8v-33a2.006 2.006 0 0 1 2-2h28a2.006 2.006 0 0 1 2 2v2h-18a1 1 0 0 0 0 2h18v6a1 1 0 0 0 2 0v-10a4 4 0 0 0 -4-4h-1v-2zm-4 2h-22v-2h22zm-26-4a1 1 0 0 1 -1-1v-4a1 1 0 0 1 1-1h30a1 1 0 0 1 1 1v4a1 1 0 0 1 -1 1z" fill="url(#New_Gradient_Swatch_1)"/><path d="m21.71 38.29a1.008 1.008 0 0 1 0 1.42 1.014 1.014 0 0 1 -1.42 0l-3.29-3.3-3.29 3.3a1.014 1.014 0 0 1 -1.42 0 1.008 1.008 0 0 1 0-1.42l3.3-3.29-5.3-5.29a1 1 0 0 1 -.21-1.09.987.987 0 0 1 .92-.62 3 3 0 0 0 0-6h-3v11a1 1 0 0 1 -2 0v-12a1 1 0 0 1 1-1h4a5 5 0 0 1 2 9.58l4 4.01 3.29-3.3a1 1 0 0 1 1.42 1.42l-3.3 3.29z" fill="url(#New_Gradient_Swatch_1-2)"/><path d="m9 8v-2a1 1 0 0 0 -2 0v2a1 1 0 0 0 2 0z" fill="url(#New_Gradient_Swatch_1-3)"/><path d="m32 9a1 1 0 0 0 1-1v-2a1 1 0 0 0 -2 0v2a1 1 0 0 0 1 1z" fill="url(#New_Gradient_Swatch_1-4)"/><path d="m28 9a1 1 0 0 0 1-1v-2a1 1 0 0 0 -2 0v2a1 1 0 0 0 1 1z" fill="url(#New_Gradient_Swatch_1-5)"/><path d="m24 9a1 1 0 0 0 1-1v-2a1 1 0 0 0 -2 0v2a1 1 0 0 0 1 1z" fill="url(#New_Gradient_Swatch_1-6)"/><path d="m20 9a1 1 0 0 0 1-1v-2a1 1 0 0 0 -2 0v2a1 1 0 0 0 1 1z" fill="url(#New_Gradient_Swatch_1)"/><path d="m16 9a1 1 0 0 0 1-1v-2a1 1 0 0 0 -2 0v2a1 1 0 0 0 1 1z" fill="url(#New_Gradient_Swatch_1-8)"/><path d="m12 9a1 1 0 0 0 1-1v-2a1 1 0 0 0 -2 0v2a1 1 0 0 0 1 1z" fill="url(#New_Gradient_Swatch_1-9)"/><path d="m52 42a9.87 9.87 0 0 0 -4.27.97 9 9 0 0 0 -14.71-9.72l-12.73 12.73a9 9 0 0 0 12.73 12.73l9.34-9.35a10 10 0 1 0 9.64-7.36zm-20.39 15.29a7 7 0 0 1 -9.9-9.9l5.65-5.65 9.9 9.9zm7.07-7.07-9.9-9.9 5.65-5.65a7 7 0 0 1 9.9 9.9zm13.32 9.78a8.011 8.011 0 0 1 -8-8 7.924 7.924 0 0 1 1.69-4.9l11.21 11.21a7.924 7.924 0 0 1 -4.9 1.69zm6.31-3.1-11.21-11.21a7.924 7.924 0 0 1 4.9-1.69 8.011 8.011 0 0 1 8 8 7.924 7.924 0 0 1 -1.69 4.9z" fill="url(#New_Gradient_Swatch_1-10)"/></g></svg>