<svg height="512" viewBox="0 0 64 64" width="512" xmlns="http://www.w3.org/2000/svg"><g id="Drug-Medicine-Medical-Health_care-Capsula-Bottle" data-name="Drug-Medicine-Medical-Health care-Capsula-Bottle"><path d="m3 52v6a3 3 0 0 0 3 3h28a3 3 0 0 0 3-3v-6z" fill="#57a4ff"/><path d="m3 21h34v31h-34z" fill="#bdfdff"/><path d="m37 18v3h-34v-3a3 3 0 0 1 3-3h28a3 3 0 0 1 3 3z" fill="#57a4ff"/><path d="m37 52v6a3 3 0 0 1 -3 3h-5a3 3 0 0 0 3-3v-6z" fill="#006df0"/><path d="m32 21h5v31h-5z" fill="#46f8ff"/><path d="m37 18v3h-5v-3a3 3 0 0 0 -3-3h5a3 3 0 0 1 3 3z" fill="#006df0"/><path d="m52 43a8.994 8.994 0 0 1 6.36 15.36l-12.72-12.72a8.954 8.954 0 0 1 6.36-2.64z" fill="#ffde55"/><path d="m45.64 45.64 12.72 12.72a8.994 8.994 0 1 1 -12.72-12.72z" fill="#ffeb99"/><path d="m37 31.98a8 8 0 0 1 8.04 13.29l-6.36 6.37-11.31-11.31 6.36-6.37a7.9 7.9 0 0 1 3.27-1.98z" fill="#00ddc2"/><path d="m47.39 39.62a7.984 7.984 0 0 1 -2.35 5.65l-6.36 6.37-4-4 2.36-2.37a7.979 7.979 0 0 0 0-11.31 7.765 7.765 0 0 0 -1.67-1.27 7.821 7.821 0 0 1 1.63-.71 8.01 8.01 0 0 1 10.39 7.64z" fill="#00ccb3"/><path d="m18.68 52a7.9 7.9 0 0 1 2.32-5.31l6.37-6.36 11.31 11.31-1.68 1.67-4.69 4.69a7.983 7.983 0 0 1 -13.63-6z" fill="#e0e0e2"/><path d="m38.68 51.64-1.68 1.67-4.69 4.69a8 8 0 0 1 -11.31 0 7.586 7.586 0 0 1 -1.62-2.37 7.984 7.984 0 0 0 8.93-1.63l4.69-4.69 1.68-1.67z" fill="#d9ccbc"/><rect fill="#c6c5ca" height="8" rx="2" width="34" x="3" y="3"/><path d="m37 5v4a2.006 2.006 0 0 1 -2 2h-5a2.006 2.006 0 0 0 2-2v-4a2.006 2.006 0 0 0 -2-2h5a2.006 2.006 0 0 1 2 2z" fill="#acabb1"/><path d="m8 11h24v4h-24z" fill="#bdfdff"/><path d="m35 12a3.009 3.009 0 0 0 3-3v-4a3.009 3.009 0 0 0 -3-3h-30a3.009 3.009 0 0 0 -3 3v4a3.009 3.009 0 0 0 3 3h2v2h-1a4 4 0 0 0 -4 4v40a4 4 0 0 0 4 4h9a1 1 0 0 0 0-2h-9a2.006 2.006 0 0 1 -2-2v-5h8a1 1 0 0 0 0-2h-8v-33a2.006 2.006 0 0 1 2-2h28a2.006 2.006 0 0 1 2 2v2h-18a1 1 0 0 0 0 2h18v6a1 1 0 0 0 2 0v-10a4 4 0 0 0 -4-4h-1v-2zm-4 2h-22v-2h22zm-26-4a1 1 0 0 1 -1-1v-4a1 1 0 0 1 1-1h30a1 1 0 0 1 1 1v4a1 1 0 0 1 -1 1z"/><path d="m21.71 38.29a1.008 1.008 0 0 1 0 1.42 1.014 1.014 0 0 1 -1.42 0l-3.29-3.3-3.29 3.3a1.014 1.014 0 0 1 -1.42 0 1.008 1.008 0 0 1 0-1.42l3.3-3.29-5.3-5.29a1 1 0 0 1 -.21-1.09.987.987 0 0 1 .92-.62 3 3 0 0 0 0-6h-3v11a1 1 0 0 1 -2 0v-12a1 1 0 0 1 1-1h4a5 5 0 0 1 2 9.58l4 4.01 3.29-3.3a1 1 0 0 1 1.42 1.42l-3.3 3.29z"/><path d="m9 8v-2a1 1 0 0 0 -2 0v2a1 1 0 0 0 2 0z"/><path d="m32 9a1 1 0 0 0 1-1v-2a1 1 0 0 0 -2 0v2a1 1 0 0 0 1 1z"/><path d="m28 9a1 1 0 0 0 1-1v-2a1 1 0 0 0 -2 0v2a1 1 0 0 0 1 1z"/><path d="m24 9a1 1 0 0 0 1-1v-2a1 1 0 0 0 -2 0v2a1 1 0 0 0 1 1z"/><path d="m20 9a1 1 0 0 0 1-1v-2a1 1 0 0 0 -2 0v2a1 1 0 0 0 1 1z"/><path d="m16 9a1 1 0 0 0 1-1v-2a1 1 0 0 0 -2 0v2a1 1 0 0 0 1 1z"/><path d="m12 9a1 1 0 0 0 1-1v-2a1 1 0 0 0 -2 0v2a1 1 0 0 0 1 1z"/><path d="m52 42a9.87 9.87 0 0 0 -4.27.97 9 9 0 0 0 -14.71-9.72l-12.73 12.73a9 9 0 0 0 12.73 12.73l9.34-9.35a10 10 0 1 0 9.64-7.36zm-20.39 15.29a7 7 0 0 1 -9.9-9.9l5.65-5.65 9.9 9.9zm7.07-7.07-9.9-9.9 5.65-5.65a7 7 0 0 1 9.9 9.9zm13.32 9.78a8.011 8.011 0 0 1 -8-8 7.924 7.924 0 0 1 1.69-4.9l11.21 11.21a7.924 7.924 0 0 1 -4.9 1.69zm6.31-3.1-11.21-11.21a7.924 7.924 0 0 1 4.9-1.69 8.011 8.011 0 0 1 8 8 7.924 7.924 0 0 1 -1.69 4.9z"/></g></svg>