<?xml version="1.0" encoding="utf-8"?>
<!-- Generator: Adobe Illustrator 23.0.5, SVG Export Plug-In . SVG Version: 6.00 Build 0)  -->
<svg version="1.1" id="Layer_1" xmlns="http://www.w3.org/2000/svg" xmlns:xlink="http://www.w3.org/1999/xlink" x="0px" y="0px"
	 viewBox="0 0 213.2 125" style="enable-background:new 0 0 213.2 125;" xml:space="preserve">
<style type="text/css">
	.st0{fill:#50B800;}
</style>
<path class="st0" d="M106.6,11.3c-18.8,0-34.1,15.3-34.1,34.1s15.3,34.1,34.1,34.1s34.1-15.3,34.1-34.1S125.4,11.3,106.6,11.3z
	 M124.2,37.2l-20,20.1c-0.6,0.6-1.6,1.1-2.5,1.1s-1.8-0.4-2.5-1.1L89.1,47.2c-1.4-1.4-1.4-3.6,0-5c1.4-1.4,3.6-1.4,5,0l7.5,7.5
	l17.6-17.6c1.4-1.4,3.6-1.4,5,0C125.6,33.5,125.6,35.7,124.2,37.2z"/>
<g>
	<g>
		<g>
			<path class="st0" d="M22.3,107.4c0,0.7-0.2,1.3-0.5,1.7c-0.4,0.5-0.8,0.9-1.4,1.1c-0.6,0.3-1.2,0.4-2,0.4h-6V98h6.5
				c0.6,0,1.1,0.2,1.5,0.5c0.4,0.3,0.8,0.7,1,1.2c0.2,0.5,0.3,1,0.3,1.5c0,0.6-0.2,1.2-0.5,1.7s-0.8,1-1.3,1.2
				c0.7,0.2,1.3,0.6,1.7,1.2C22.1,105.9,22.3,106.6,22.3,107.4z M14.4,99.7v3.8H18c0.3,0,0.6-0.1,0.9-0.3c0.3-0.2,0.5-0.4,0.6-0.7
				c0.2-0.3,0.2-0.6,0.2-1c0-0.4-0.1-0.7-0.2-1c-0.1-0.3-0.3-0.5-0.6-0.7c-0.2-0.2-0.5-0.3-0.9-0.3H14.4z M20.3,107
				c0-0.4-0.1-0.7-0.2-1c-0.2-0.3-0.4-0.5-0.6-0.7s-0.6-0.3-0.9-0.3h-4.1v3.9h4c0.4,0,0.7-0.1,1-0.3c0.3-0.2,0.5-0.4,0.7-0.7
				C20.2,107.7,20.3,107.4,20.3,107z"/>
			<path class="st0" d="M29.6,110.7c-0.9,0-1.7-0.2-2.4-0.5c-0.7-0.4-1.4-0.8-1.9-1.5c-0.5-0.6-1-1.3-1.2-2.1
				c-0.3-0.8-0.4-1.6-0.4-2.4c0-0.8,0.2-1.6,0.5-2.4c0.3-0.8,0.7-1.4,1.3-2c0.6-0.6,1.2-1.1,1.9-1.4c0.7-0.4,1.5-0.5,2.4-0.5
				c0.9,0,1.7,0.2,2.5,0.6c0.7,0.4,1.4,0.9,1.9,1.5s0.9,1.3,1.2,2.1c0.3,0.8,0.4,1.5,0.4,2.4c0,0.8-0.1,1.6-0.4,2.4s-0.7,1.4-1.3,2
				c-0.6,0.6-1.2,1.1-1.9,1.4C31.3,110.6,30.5,110.7,29.6,110.7z M25.6,104.3c0,0.6,0.1,1.2,0.3,1.7c0.2,0.6,0.5,1,0.8,1.5
				c0.3,0.4,0.8,0.8,1.3,1c0.5,0.2,1.1,0.4,1.7,0.4c0.6,0,1.2-0.1,1.7-0.4c0.5-0.3,0.9-0.6,1.3-1.1c0.3-0.4,0.6-0.9,0.8-1.5
				s0.3-1.1,0.3-1.7c0-0.6-0.1-1.2-0.3-1.7s-0.5-1-0.8-1.5c-0.4-0.4-0.8-0.8-1.3-1c-0.5-0.2-1-0.4-1.6-0.4c-0.7,0-1.2,0.1-1.7,0.4
				c-0.5,0.3-0.9,0.6-1.3,1c-0.3,0.4-0.6,0.9-0.8,1.5C25.7,103.2,25.6,103.8,25.6,104.3z"/>
			<path class="st0" d="M43,110.7c-0.9,0-1.7-0.2-2.4-0.5c-0.7-0.4-1.4-0.8-1.9-1.5c-0.5-0.6-1-1.3-1.2-2.1
				c-0.3-0.8-0.4-1.6-0.4-2.4c0-0.8,0.2-1.6,0.5-2.4c0.3-0.8,0.7-1.4,1.3-2c0.6-0.6,1.2-1.1,1.9-1.4c0.7-0.4,1.5-0.5,2.4-0.5
				c0.9,0,1.7,0.2,2.5,0.6c0.7,0.4,1.4,0.9,1.9,1.5s0.9,1.3,1.2,2.1c0.3,0.8,0.4,1.5,0.4,2.4c0,0.8-0.1,1.6-0.4,2.4s-0.7,1.4-1.3,2
				c-0.6,0.6-1.2,1.1-1.9,1.4C44.7,110.6,43.9,110.7,43,110.7z M39,104.3c0,0.6,0.1,1.2,0.3,1.7c0.2,0.6,0.5,1,0.8,1.5
				c0.3,0.4,0.8,0.8,1.3,1c0.5,0.2,1.1,0.4,1.7,0.4c0.6,0,1.2-0.1,1.7-0.4c0.5-0.3,0.9-0.6,1.3-1.1c0.3-0.4,0.6-0.9,0.8-1.5
				s0.3-1.1,0.3-1.7c0-0.6-0.1-1.2-0.3-1.7s-0.5-1-0.8-1.5c-0.4-0.4-0.8-0.8-1.3-1c-0.5-0.2-1-0.4-1.6-0.4c-0.7,0-1.2,0.1-1.7,0.4
				c-0.5,0.3-0.9,0.6-1.3,1c-0.3,0.4-0.6,0.9-0.8,1.5C39.1,103.2,39,103.8,39,104.3z"/>
			<path class="st0" d="M51.1,110.6V98h2v6.5l5.9-6.5h2.2l-5,5.6l5.3,7.1h-2.3l-4.3-5.8l-1.9,2v3.8H51.1z"/>
			<path class="st0" d="M62.9,110.6V98h2v12.6H62.9z"/>
			<path class="st0" d="M69.8,101.7v8.9h-2V98h1.6l7.2,9.1V98h2v12.6h-1.7L69.8,101.7z"/>
			<path class="st0" d="M86.6,110.7c-0.8,0-1.6-0.2-2.3-0.5c-0.7-0.3-1.4-0.8-1.9-1.4c-0.5-0.6-1-1.3-1.3-2.1s-0.5-1.6-0.5-2.5
				c0-0.9,0.2-1.7,0.5-2.4s0.7-1.4,1.3-2c0.5-0.6,1.2-1.1,1.9-1.4c0.7-0.3,1.5-0.5,2.4-0.5c1.2,0,2.2,0.3,3.1,0.8
				c0.8,0.5,1.4,1.2,1.9,2l-1.5,1.1c-0.3-0.7-0.8-1.2-1.4-1.5c-0.6-0.3-1.3-0.5-2-0.5c-0.6,0-1.1,0.1-1.6,0.4s-0.9,0.6-1.2,1
				s-0.6,0.9-0.8,1.5s-0.3,1.1-0.3,1.7c0,0.6,0.1,1.2,0.3,1.8c0.2,0.6,0.5,1,0.9,1.5c0.4,0.4,0.8,0.8,1.3,1s1,0.4,1.6,0.4
				c0.7,0,1.4-0.2,2-0.5c0.6-0.4,1.2-0.9,1.8-1.6v2C89.3,110.1,88.1,110.7,86.6,110.7z M90.2,105.7h-2.6v-1.5h4.3v6.4h-1.7V105.7z"
				/>
			<path class="st0" d="M97.8,104.2c0-0.8,0.1-1.5,0.4-2.3c0.3-0.7,0.7-1.4,1.2-2c0.5-0.6,1.2-1.1,1.9-1.5s1.6-0.5,2.6-0.5
				c1.2,0,2.1,0.3,3,0.8c0.8,0.5,1.4,1.2,1.8,2l-1.6,1.1c-0.2-0.5-0.5-0.9-0.9-1.2c-0.4-0.3-0.8-0.5-1.2-0.6
				c-0.4-0.1-0.8-0.2-1.2-0.2c-0.7,0-1.2,0.1-1.7,0.4c-0.5,0.3-0.9,0.6-1.3,1.1c-0.3,0.4-0.6,0.9-0.8,1.5c-0.2,0.5-0.2,1.1-0.2,1.6
				c0,0.6,0.1,1.2,0.3,1.8c0.2,0.6,0.5,1.1,0.8,1.5c0.4,0.4,0.8,0.8,1.3,1c0.5,0.2,1,0.4,1.6,0.4c0.4,0,0.8-0.1,1.3-0.2
				s0.8-0.4,1.2-0.7s0.7-0.7,0.9-1.2l1.7,0.9c-0.3,0.6-0.7,1.2-1.2,1.6c-0.6,0.4-1.2,0.8-1.9,1c-0.7,0.2-1.4,0.3-2,0.3
				c-0.9,0-1.7-0.2-2.4-0.6c-0.7-0.4-1.4-0.9-1.9-1.5s-1-1.3-1.3-2.1C98,105.8,97.8,105,97.8,104.2z"/>
			<path class="st0" d="M116,110.7c-0.9,0-1.7-0.2-2.4-0.5c-0.7-0.4-1.4-0.8-1.9-1.5s-1-1.3-1.2-2.1s-0.4-1.6-0.4-2.4
				c0-0.8,0.2-1.6,0.5-2.4s0.7-1.4,1.3-2c0.6-0.6,1.2-1.1,1.9-1.4c0.7-0.4,1.5-0.5,2.4-0.5c0.9,0,1.7,0.2,2.5,0.6
				c0.7,0.4,1.4,0.9,1.9,1.5s0.9,1.3,1.2,2.1c0.3,0.8,0.4,1.5,0.4,2.4c0,0.8-0.1,1.6-0.4,2.4c-0.3,0.8-0.7,1.4-1.3,2
				s-1.2,1.1-1.9,1.4C117.7,110.6,116.9,110.7,116,110.7z M112,104.3c0,0.6,0.1,1.2,0.3,1.7c0.2,0.6,0.5,1,0.8,1.5
				c0.4,0.4,0.8,0.8,1.3,1c0.5,0.2,1.1,0.4,1.7,0.4c0.6,0,1.2-0.1,1.7-0.4c0.5-0.3,0.9-0.6,1.3-1.1c0.3-0.4,0.6-0.9,0.8-1.5
				c0.2-0.5,0.3-1.1,0.3-1.7c0-0.6-0.1-1.2-0.3-1.7c-0.2-0.5-0.5-1-0.8-1.5c-0.4-0.4-0.8-0.8-1.3-1c-0.5-0.2-1-0.4-1.6-0.4
				c-0.7,0-1.2,0.1-1.7,0.4c-0.5,0.3-0.9,0.6-1.3,1c-0.3,0.4-0.6,0.9-0.8,1.5C112.1,103.2,112,103.8,112,104.3z"/>
			<path class="st0" d="M126.2,101.7v8.9h-2V98h1.6l7.2,9.1V98h2v12.6h-1.7L126.2,101.7z"/>
			<path class="st0" d="M137.8,110.6V98h8.4v1.8h-6.4v3.8h5.4v1.6h-5.4v5.5H137.8z"/>
			<path class="st0" d="M148.1,110.6V98h2v12.6H148.1z"/>
			<path class="st0" d="M153,110.6V98h5.5c0.6,0,1.1,0.1,1.6,0.4c0.5,0.2,0.9,0.6,1.2,0.9c0.3,0.4,0.6,0.8,0.8,1.3
				c0.2,0.5,0.3,1,0.3,1.5c0,0.6-0.1,1.1-0.3,1.6c-0.2,0.5-0.5,0.9-0.9,1.3c-0.4,0.4-0.8,0.6-1.3,0.8l3,4.8h-2.2l-2.7-4.4H155v4.4
				H153z M155,104.5h3.5c0.4,0,0.7-0.1,1-0.3c0.3-0.2,0.5-0.5,0.7-0.9c0.2-0.4,0.2-0.7,0.2-1.2c0-0.4-0.1-0.8-0.3-1.2
				s-0.4-0.6-0.7-0.8c-0.3-0.2-0.6-0.3-1-0.3H155V104.5z"/>
			<path class="st0" d="M175.4,110.6v-9l-3.7,6.8h-1.2l-3.7-6.8v9h-2V98h2.1l4.2,7.7l4.2-7.7h2.1v12.6H175.4z"/>
			<path class="st0" d="M188.9,108.9v1.8h-8.7V98h8.5v1.8h-6.5v3.6h5.6v1.6h-5.6v3.9H188.9z"/>
			<path class="st0" d="M191,110.6V98h4.5c1.4,0,2.5,0.3,3.4,0.8s1.6,1.3,2.1,2.3s0.7,2,0.7,3.2c0,1.3-0.3,2.4-0.8,3.3
				c-0.5,0.9-1.2,1.7-2.1,2.2c-0.9,0.5-2,0.8-3.3,0.8H191z M199.6,104.3c0-0.9-0.2-1.7-0.5-2.4c-0.3-0.7-0.8-1.2-1.4-1.6
				s-1.4-0.6-2.2-0.6H193v9.1h2.5c0.9,0,1.6-0.2,2.3-0.6s1.1-1,1.4-1.6S199.6,105.2,199.6,104.3z"/>
		</g>
	</g>
</g>
</svg>
