<svg height="512" viewBox="0 0 64 64" width="512" xmlns="http://www.w3.org/2000/svg" xmlns:xlink="http://www.w3.org/1999/xlink"><linearGradient id="New_Gradient_Swatch_1" gradientUnits="userSpaceOnUse" x1="23" x2="23" y1="-2.211" y2="70.821"><stop offset="0" stop-color="#fff33b"/><stop offset=".014" stop-color="#fee72e"/><stop offset=".042" stop-color="#fed51b"/><stop offset=".07" stop-color="#fdca10"/><stop offset=".1" stop-color="#fdc70c"/><stop offset=".4" stop-color="#f3903f"/><stop offset=".8" stop-color="#ed683c"/><stop offset="1" stop-color="#e93e3a"/></linearGradient><linearGradient id="New_Gradient_Swatch_1-2" x1="16.001" x2="16.001" xlink:href="#New_Gradient_Swatch_1" y1="-2.211" y2="70.821"/><linearGradient id="New_Gradient_Swatch_1-3" x1="54" x2="54" xlink:href="#New_Gradient_Swatch_1" y1="-2.211" y2="70.821"/><linearGradient id="New_Gradient_Swatch_1-4" x1="28.031" x2="28.031" xlink:href="#New_Gradient_Swatch_1" y1="-2.211" y2="70.821"/><linearGradient id="New_Gradient_Swatch_1-5" x1="39.5" x2="39.5" xlink:href="#New_Gradient_Swatch_1" y1="-2.211" y2="70.821"/><linearGradient id="New_Gradient_Swatch_1-6" x1="31.968" x2="31.968" xlink:href="#New_Gradient_Swatch_1" y1="-2.211" y2="70.821"/><linearGradient id="New_Gradient_Swatch_1-7" x1="51" x2="51" xlink:href="#New_Gradient_Swatch_1" y1="-2.211" y2="70.821"/><g id="Medicine-Medical-Document-Drug-Health_caer" data-name="Medicine-Medical-Document-Drug-Health caer"><path d="m43.92 12.61a.988.988 0 0 0 -.21-.32l-10-10a.933.933 0 0 0 -.33-.21 1 1 0 0 0 -.38-.08h-26a5 5 0 0 0 -5 5v50a5 5 0 0 0 5 5h12a1 1 0 0 0 0-2h-12a3.009 3.009 0 0 1 -3-3v-50a3.009 3.009 0 0 1 3-3h25v7a3.009 3.009 0 0 0 3 3h7v3.03a1 1 0 0 0 2 0v-4.03a1.087 1.087 0 0 0 -.08-.39zm-8.92-.61a1 1 0 0 1 -1-1v-5.59l6.59 6.59z" fill="url(#New_Gradient_Swatch_1)"/><path d="m25.71 31.71a1.014 1.014 0 0 1 -1.42 0l-4.56-4.57-5.06 4.6a1.008 1.008 0 0 1 -.67.26 1 1 0 0 1 -.67-1.74l4.98-4.53-6.02-6.02a1 1 0 0 1 -.21-1.09.987.987 0 0 1 .92-.62 5 5 0 0 0 0-10h-5v17a1 1 0 0 1 -2 0v-17a2.006 2.006 0 0 1 2-2h5a7 7 0 0 1 2.09 13.68l4.7 4.7 4.54-4.12a1 1 0 0 1 1.34 1.48l-4.46 4.06 4.5 4.49a1.008 1.008 0 0 1 0 1.42z" fill="url(#New_Gradient_Swatch_1-2)"/><path d="m57 43a1 1 0 0 0 -1 1v7a5.006 5.006 0 0 1 -5 5 1 1 0 0 0 0 2 7.008 7.008 0 0 0 7-7v-7a1 1 0 0 0 -1-1z" fill="url(#New_Gradient_Swatch_1-3)"/><path d="m23.812 44.228a1.012 1.012 0 0 0 -.833-.286 1 1 0 0 0 -.735.485 9 9 0 0 0 12.33 12.329 1 1 0 0 0 .2-1.568zm1.238 9.722a7 7 0 0 1 -1.647-7.3l8.951 8.95a7.005 7.005 0 0 1 -7.304-1.65z" fill="url(#New_Gradient_Swatch_1-4)"/><path d="m58.78 21.22a11 11 0 0 0 -18.78 7.78v11.71a13.008 13.008 0 1 0 1.09 15.03 10.99 10.99 0 0 0 20.91-4.74v-22a10.922 10.922 0 0 0 -3.22-7.78zm-28.78 38.78a11 11 0 1 1 11-11 11.007 11.007 0 0 1 -11 11zm30-9a8.992 8.992 0 0 1 -17.71 2.21 13.1 13.1 0 0 0 .71-4.21 12.957 12.957 0 0 0 -1-4.99v-3.01h18zm0-12h-18v-10a9 9 0 0 1 18 0z" fill="url(#New_Gradient_Swatch_1-5)"/><path d="m36.36 42.64a8.99 8.99 0 0 0 -10.93-1.4 1.008 1.008 0 0 0 -.49.74.988.988 0 0 0 .29.83l10.96 10.96a.994.994 0 0 0 .7.3c.05 0 .09-.01.13-.01a1.008 1.008 0 0 0 .74-.49 8.99 8.99 0 0 0 -1.4-10.93zm.24 8.71-8.95-8.95a7.01 7.01 0 0 1 8.95 8.95z" fill="url(#New_Gradient_Swatch_1-6)"/><path d="m57 27h-3v-3a1 1 0 0 0 -1-1h-4a1 1 0 0 0 -1 1v3h-3a1 1 0 0 0 -1 1v4a1 1 0 0 0 1 1h3v3a1 1 0 0 0 1 1h4a1 1 0 0 0 1-1v-3h3a1 1 0 0 0 1-1v-4a1 1 0 0 0 -1-1zm-1 4h-3a1 1 0 0 0 -1 1v3h-2v-3a1 1 0 0 0 -1-1h-3v-2h3a1 1 0 0 0 1-1v-3h2v3a1 1 0 0 0 1 1h3z" fill="url(#New_Gradient_Swatch_1-7)"/></g></svg>